PathFileType	4	(X/Y/Z)	C:/Users/opensim2020/Desktop/walking_exp_matlab/subject06_walking19_straight_03.trc																																																																																																																																																	
DataRate	CameraRate	NumFrames	NumMarkers	Units	OrigDataRate	OrigDataStartFrame	OrigNumFrames																																																																																																																																													
100	100	4	49	mm	100	3446	358																																																																																																																																													
Frame#	Time	LFHD			RFHD			LBHD			RBHD			C7			T10			CLAV			STRN			RBAK			LSHO			LUPA			LELB			LFRM			LWRA			LWRB			LFIN			RSHO			RUPA			RELB			RFRM			RWRA			RWRB			RFIN			LASI			RASI			LPSI			RPSI			LTHI			LKNE			LTIB			LANK			LHEE			LTOE			RTHI			RKNE			RTIB			RANK			RHEE			RTOE			*39			*40			*41			*42			*43			*44			*45			*46			*47			*48		
		X1	Y1	Z1	X2	Y2	Z2	X3	Y3	Z3	X4	Y4	Z4	X5	Y5	Z5	X6	Y6	Z6	X7	Y7	Z7	X8	Y8	Z8	X9	Y9	Z9	X10	Y10	Z10	X11	Y11	Z11	X12	Y12	Z12	X13	Y13	Z13	X14	Y14	Z14	X15	Y15	Z15	X16	Y16	Z16	X17	Y17	Z17	X18	Y18	Z18	X19	Y19	Z19	X20	Y20	Z20	X21	Y21	Z21	X22	Y22	Z22	X23	Y23	Z23	X24	Y24	Z24	X25	Y25	Z25	X26	Y26	Z26	X27	Y27	Z27	X28	Y28	Z28	X29	Y29	Z29	X30	Y30	Z30	X31	Y31	Z31	X32	Y32	Z32	X33	Y33	Z33	X34	Y34	Z34	X35	Y35	Z35	X36	Y36	Z36	X37	Y37	Z37	X38	Y38	Z38	X39	Y39	Z39	X40	Y40	Z40	X41	Y41	Z41	X42	Y42	Z42	X43	Y43	Z43	X44	Y44	Z44	X45	Y45	Z45	X46	Y46	Z46	X47	Y47	Z47	X48	Y48	Z48	X49	Y49	Z49
																																																																																																																																																				
180	1.79	-20.5973	1673.54175	1348.17053	-23.31603	1663.77588	1479.82678	-151.30792	1613.41858	1345.46851	-152.81961	1608.91028	1475.06189	-150.13396	1460.25415	1400.21265	-187.49466	1131.9281	1406.40845	-39.08057	1383.66846	1408.21606	0.1183	1207.29858	1405.53052	-226.26393	1291.04163	1477.07678	-79.61395	1414.32568	1242.52698	-73.90909	1212.20251	1166.67554	-74.04305	1100.00964	1152.6134	-35.23433	954.24768	1134.17212	26.73126	844.8559	1185.82727	-25.06784	835.36755	1138.02795	24.09076	759.20441	1143.8927	-91.27868	1414.64978	1565.93372	-128.95067	1215.4231	1652.31592	-117.65833	1093.52942	1663.63574	-96.08414	975.31433	1680.87183	-27.17749	840.88977	1649.42944	-80.86474	838.508	1688.82678	-38.70938	765.01404	1690.74854	-2.39652	969.81274	1312.97412	-23.94253	974.8996	1532.57874	-163.56447	999.19788	1327.35242	-173.71724	998.65265	1495.63477	-50.76123	656.0498	1249.65942	-39.59637	493.79123	1274.29126	-55.20173	237.44643	1286.82495	-46.04518	67.3776	1335.63184	-86.15341	54.08762	1381.93396	98.56533	42.4963	1341.38196	-51.7524	636.95361	1583.41602	-32.85429	511.49799	1566.42322	-213.86035	328.64749	1570.06189	-353.28424	201.84244	1537.44629	-399.86526	211.82658	1495.7948	-277.98822	66.09478	1523.46838	-124.02	1708.1355	1404.79138	NaN	NaN	NaN	NaN	NaN	NaN	NaN	NaN	NaN	NaN	NaN	NaN	NaN	NaN	NaN	NaN	NaN	NaN	NaN	NaN	NaN	NaN	NaN	NaN	NaN	NaN	NaN
181	1.8	-14.86759	1674.03564	1346.91467	-17.71514	1664.29102	1478.54651	-145.72198	1614.2356	1344.14185	-147.32179	1609.72937	1473.69812	-144.78374	1460.76343	1398.86694	-181.90071	1132.40515	1405.1947	-33.75427	1384.3114	1407.07422	5.59553	1207.97717	1404.46375	-220.99442	1291.54199	1475.9574	-74.20441	1414.81665	1241.31946	-66.66895	1212.76123	1165.26416	-65.29028	1100.61609	1150.99939	-24.44195	955.37927	1132.67493	39.14445	846.95142	1184.49243	-12.79154	836.73798	1136.49988	37.50216	761.25409	1142.28882	-86.18378	1415.37866	1564.68396	-123.72158	1216.02954	1650.79602	-112.00236	1094.10437	1662.14575	-90.54391	975.8808	1679.31311	-21.63549	841.38403	1648.14905	-75.55235	838.96881	1687.23352	-33.34108	765.60315	1689.49878	3.27419	970.16034	1312.07422	-18.21928	975.66498	1531.6571	-157.82515	999.60876	1326.25195	-167.97122	999.37885	1494.52405	-47.17064	656.28949	1249.17224	-37.60102	493.71606	1273.60986	-54.8445	237.54298	1286.62109	-46.2145	67.45684	1335.61353	-86.25869	54.05487	1381.92273	98.5075	42.31641	1341.40796	-43.23175	638.18304	1582.47986	-22.72033	512.96838	1565.14197	-201.65382	328.56631	1569.41248	-339.91214	200.21513	1536.88452	-387.01331	208.72289	1495.38599	-260.95264	67.18037	1523.0022	-118.26424	1708.85486	1403.44214	NaN	NaN	NaN	NaN	NaN	NaN	NaN	NaN	NaN	NaN	NaN	NaN	NaN	NaN	NaN	NaN	NaN	NaN	NaN	NaN	NaN	NaN	NaN	NaN	NaN	NaN	NaN
182	1.81	-9.22631	1674.5177	1345.70313	-12.20882	1664.82788	1477.33167	-140.17365	1615.021	1342.79736	-141.92122	1610.60352	1472.43213	-139.50044	1461.31665	1397.61035	-176.37399	1132.93738	1403.98804	-28.45579	1384.91895	1405.91357	11.08433	1208.65845	1403.34924	-215.45895	1292.11389	1474.76172	-68.78292	1415.35938	1240.17603	-59.53914	1213.34351	1164.10498	-56.59945	1101.15198	1149.62476	-13.70912	956.69916	1131.20068	51.12986	849.10107	1183.27185	-0.50684	838.10242	1135.04895	50.94263	763.49402	1140.87927	-81.09749	1416.11292	1563.49744	-118.50668	1216.66406	1649.39172	-106.65726	1094.73059	1660.63025	-85.20658	976.48676	1677.79297	-16.10104	841.96454	1646.94849	-70.23701	839.67297	1685.83936	-28.04658	766.14124	1688.16687	8.77723	970.51611	1311.13037	-12.54707	976.54999	1530.7135	-152.20943	1000.08563	1325.11975	-162.26851	1000.18121	1493.41504	-43.50453	656.46252	1248.8252	-35.44993	493.65424	1273.0907	-54.40974	237.73761	1286.37048	-46.26768	67.46944	1335.63879	-86.22618	53.994	1381.98999	98.58004	42.25203	1341.46582	-34.86566	639.45685	1581.5481	-12.81692	514.56769	1563.78711	-189.34367	327.96445	1568.76404	-326.04608	197.7122	1536.19336	-373.62161	204.66895	1494.60034	-242.92635	67.84065	1523.31738	-112.55481	1709.58716	1402.10706	NaN	NaN	NaN	NaN	NaN	NaN	NaN	NaN	NaN	NaN	NaN	NaN	NaN	NaN	NaN	NaN	NaN	NaN	NaN	NaN	NaN	NaN	NaN	NaN	NaN	NaN	NaN
183	1.82	-3.65272	1675.01624	1344.54932	-6.97766	1665.36255	1476.05188	-134.75642	1615.75439	1341.54419	-136.62866	1611.39014	1471.12964	-134.23228	1461.83618	1396.36389	-170.91328	1133.45764	1402.73096	-23.15711	1385.53723	1404.81433	16.45687	1209.28882	1402.30798	-210.2471	1292.64526	1473.61499	-63.38803	1415.99451	1239.0498	-52.44241	1214.00793	1162.90881	-47.89915	1102.01794	1148.26221	-3.0504	958.03058	1129.93909	63.04279	851.30499	1182.14294	11.84876	839.66785	1133.74573	64.2309	765.88062	1139.51086	-76.04884	1416.84729	1562.30518	-113.32295	1217.33423	1648.10803	-101.14034	1095.43396	1659.28271	-79.73328	977.14478	1676.44263	-10.58288	842.63684	1645.78381	-64.83632	840.24792	1684.32117	-22.67897	766.68329	1686.82178	14.23119	970.85486	1310.14197	-6.81491	977.60736	1529.77698	-146.66527	1000.51276	1324.04358	-156.56494	1000.96356	1492.36511	-39.92826	656.50787	1248.50464	-33.19314	493.62534	1272.68213	-53.76607	237.77826	1286.22461	-46.31539	67.51807	1335.64539	-86.18439	53.83699	1382.1283	98.39043	42.0519	1341.49475	-26.97007	640.89923	1580.38635	-3.33033	516.21606	1562.4834	-176.96448	326.74399	1568.11121	-311.71027	194.42186	1535.35083	-359.69931	199.72112	1493.64124	-224.09618	68.09753	1523.93286	-106.96907	1710.2959	1400.82178	NaN	NaN	NaN	NaN	NaN	NaN	NaN	NaN	NaN	NaN	NaN	NaN	NaN	NaN	NaN	NaN	NaN	NaN	NaN	NaN	NaN	NaN	NaN	NaN	NaN	NaN	NaN
